<?xml version="1.0" encoding="utf-8"?>
<!-- Generator: Adobe Illustrator 26.4.1, SVG Export Plug-In . SVG Version: 6.00 Build 0)  -->
<svg version="1.1" id="Layer_1" xmlns="http://www.w3.org/2000/svg" xmlns:xlink="http://www.w3.org/1999/xlink" x="0px" y="0px"
	 viewBox="0 0 56 56" style="enable-background:new 0 0 56 56;" xml:space="preserve">
<style type="text/css">
	.st0{fill:#040404;}
	.st1{fill:#FFFFFF;}
	.st2{fill:#F26353;}
	.st3{fill:#FFCE1B;}
	.st4{fill:#00A082;}
</style>
<g>
	<circle class="st3" cx="28" cy="28" r="28"/>
	<path class="st4" d="M28,8.1c-6.8,0-12.4,5.6-12.4,12.5c0,2.6,0.8,5.2,2.3,7.3l0.3,0.5l6.4,9.2c0,0,0.8,1.3,2.5,1.3h1.6
		c1.7,0,2.5-1.3,2.5-1.3l6.4-9.2l0.3-0.5c1.5-2.2,2.3-4.6,2.3-7.3C40.4,13.7,34.8,8.1,28,8.1 M33.1,24.3l-0.3,0.5L28,31.6l-4.8-6.8
		l-0.3-0.5c-0.8-1.1-1.2-2.4-1.2-3.7c0-0.8,0.2-1.7,0.5-2.4c0.3-0.8,0.8-1.5,1.4-2.1c0.6-0.6,1.3-1.1,2-1.4c0.8-0.3,1.6-0.5,2.4-0.5
		c0.8,0,1.6,0.2,2.4,0.5c0.8,0.3,1.5,0.8,2,1.4c0.6,0.6,1,1.3,1.4,2.1c0.3,0.8,0.5,1.6,0.5,2.4C34.3,21.9,33.8,23.2,33.1,24.3
		 M24.5,44.5c0-1.9,1.5-3.4,3.4-3.4c2,0,3.4,1.5,3.4,3.4v0c0,1.9-1.5,3.4-3.5,3.4C25.9,47.9,24.5,46.3,24.5,44.5"/>
</g>
</svg>
